<svg xmlns="http://www.w3.org/2000/svg" version="1.1" xmlns:xlink="http://www.w3.org/1999/xlink" xmlns:svgjs="http://svgjs.dev/svgjs" width="2000" height="1500" viewBox="0 0 2000 1500"><rect width="2000" height="1500" fill="#000000"></rect><g transform="matrix(0.75,0,0,0.75,249.090909090909,282.7536437246963)"><svg viewBox="0 0 396 247" data-background-color="#ffffff" preserveAspectRatio="xMidYMid meet" height="1247" width="2000" xmlns="http://www.w3.org/2000/svg" xmlns:xlink="http://www.w3.org/1999/xlink"><g id="tight-bounds" transform="matrix(1,0,0,1,0.2400000000000091,-0.09999999999999432)"><svg viewBox="0 0 395.52 247.2" height="247.2" width="395.52"><g><svg></svg></g><g><svg viewBox="0 0 395.52 247.2" height="247.2" width="395.52"><g transform="matrix(1,0,0,1,75.54432000000001,50.615555612903236)"><svg viewBox="0 0 244.43135999999996 145.96888877419352" height="145.96888877419352" width="244.43135999999996"><g><svg viewBox="0 0 244.43135999999996 145.96888877419352" height="145.96888877419352" width="244.43135999999996"><g><svg viewBox="0 0 244.43136 145.96888877419354" height="145.96888877419352" width="244.43135999999996"><g><svg viewBox="0 0 244.43136 145.96888877419354" height="145.96888877419354" width="244.43136"><g id="textblocktransform"><svg viewBox="0 0 244.43136 145.96888877419354" height="145.96888877419354" width="244.43136" id="textblock"><g><svg viewBox="0 0 244.43136 145.96888877419354" height="145.96888877419354" width="244.43136"><g transform="matrix(1,0,0,1,0,0)"><svg width="244.43136" viewBox="3.25 -35.4 60.54 36.16" height="145.96888877419354" data-palette-color="#3c0640"><path d="M31.3-17.5L31.3-17.5Q31.3-15.09 30.68-12.85 30.05-10.62 28.91-8.68 27.76-6.74 26.17-5.14 24.58-3.54 22.63-2.39 20.68-1.25 18.44-0.62 16.21 0 13.79 0L13.79 0 3.25 0 3.25-35.01 13.79-35.01Q16.21-35.01 18.44-34.39 20.68-33.76 22.63-32.62 24.58-31.47 26.17-29.87 27.76-28.27 28.91-26.33 30.05-24.39 30.68-22.16 31.3-19.92 31.3-17.5ZM24.29-17.5L24.29-17.5Q24.29-19.68 23.47-21.58 22.66-23.49 21.23-24.91 19.8-26.34 17.88-27.17 15.97-28 13.79-28L13.79-28 10.3-28 10.3-7.01 13.79-7.01Q15.97-7.01 17.88-7.82 19.8-8.64 21.23-10.07 22.66-11.5 23.47-13.42 24.29-15.33 24.29-17.5ZM63.79-17.36L63.79-3.54Q61.35-1.46 58.35-0.35 55.34 0.76 52.1 0.76L52.1 0.76Q49.61 0.76 47.3 0.11 44.99-0.54 42.99-1.72 40.99-2.91 39.33-4.55 37.67-6.2 36.5-8.22 35.32-10.23 34.68-12.55 34.03-14.87 34.03-17.36L34.03-17.36Q34.03-19.85 34.68-22.14 35.32-24.44 36.5-26.45 37.67-28.47 39.33-30.11 40.99-31.76 42.99-32.93 44.99-34.11 47.3-34.75 49.61-35.4 52.1-35.4L52.1-35.4Q55.34-35.4 58.35-34.29 61.35-33.18 63.79-31.1L63.79-31.1 60.13-25Q58.54-26.61 56.47-27.53 54.39-28.44 52.1-28.44L52.1-28.44Q49.8-28.44 47.79-27.56 45.77-26.68 44.26-25.18 42.75-23.68 41.87-21.67 40.99-19.65 40.99-17.36L40.99-17.36Q40.99-15.04 41.87-13.01 42.75-10.99 44.26-9.47 45.77-7.96 47.79-7.08 49.8-6.2 52.1-6.2L52.1-6.2Q53.42-6.2 54.66-6.52 55.91-6.84 57.03-7.4L57.03-7.4 57.03-17.36 63.79-17.36Z" opacity="1" transform="matrix(1,0,0,1,0,0)" fill="#ffffff" class="wordmark-text-0" data-fill-palette-color="primary" id="text-0"></path></svg></g></svg></g></svg></g></svg></g></svg></g></svg></g></svg></g><path d="M140.582 44.616L140.582 1.398 384.985 1.398 384.985 245.802 140.582 245.802 140.582 202.584 153.746 202.584 153.746 232.638 371.822 232.638 371.822 14.562 153.746 14.562 153.746 44.616Z" fill="#ffffff" stroke="transparent" data-fill-palette-color="tertiary"></path></svg></g><defs></defs></svg><rect width="395.52" height="247.2" fill="none" stroke="none" visibility="hidden"></rect></g></svg></g></svg>